<mxfile host="app.diagrams.net" agent="Mozilla/5.0 (Windows NT 10.0; Win64; x64) AppleWebKit/537.36 (KHTML, like Gecko) Chrome/130.0.0.0 Safari/537.36" version="24.7.17">
  <diagram name="Page-1" id="mvso16LR8UB-U4AbpYpr">
    <mxGraphModel>
      <root>
        <mxCell id="0" />
        <mxCell id="1" parent="0" />
        <mxCell id="2" value="SouthAmerica" style="whiteSpace=wrap;strokeWidth=2;verticalAlign=top;" vertex="1" parent="1">
          <mxGeometry x="90" y="8" width="402" height="316" as="geometry" />
        </mxCell>
        <mxCell id="3" value="South America" style="ellipse;aspect=fixed;strokeWidth=2;whiteSpace=wrap;" vertex="1" parent="2">
          <mxGeometry x="155" y="46" width="118" height="118" as="geometry" />
        </mxCell>
        <mxCell id="4" value="Brazil" style="rounded=1;arcSize=40;strokeWidth=2" vertex="1" parent="2">
          <mxGeometry x="43" y="238" width="71" height="49" as="geometry" />
        </mxCell>
        <mxCell id="5" value="Argentina" style="rounded=1;arcSize=40;strokeWidth=2" vertex="1" parent="2">
          <mxGeometry x="164" y="238" width="100" height="49" as="geometry" />
        </mxCell>
        <mxCell id="6" value="Peru" style="rounded=1;arcSize=40;strokeWidth=2" vertex="1" parent="2">
          <mxGeometry x="313" y="238" width="62" height="49" as="geometry" />
        </mxCell>
        <mxCell id="7" value="" style="curved=1;startArrow=none;endArrow=block;exitX=0;exitY=0.85;entryX=0.5;entryY=0;" edge="1" parent="2" source="3" target="4">
          <mxGeometry relative="1" as="geometry">
            <Array as="points">
              <mxPoint x="78" y="201" />
            </Array>
          </mxGeometry>
        </mxCell>
        <mxCell id="8" value="" style="curved=1;startArrow=none;endArrow=block;exitX=0.5;exitY=0.99;entryX=0.49;entryY=0;" edge="1" parent="2" source="3" target="5">
          <mxGeometry relative="1" as="geometry">
            <Array as="points" />
          </mxGeometry>
        </mxCell>
        <mxCell id="9" value="" style="curved=1;startArrow=none;endArrow=block;exitX=0.99;exitY=0.86;entryX=0.51;entryY=0;" edge="1" parent="2" source="3" target="6">
          <mxGeometry relative="1" as="geometry">
            <Array as="points">
              <mxPoint x="344" y="201" />
            </Array>
          </mxGeometry>
        </mxCell>
        <mxCell id="10" value="Oceania" style="whiteSpace=wrap;strokeWidth=2;verticalAlign=top;" vertex="1" parent="1">
          <mxGeometry x="33" y="374" width="517" height="271" as="geometry" />
        </mxCell>
        <mxCell id="11" value="Oceania" style="ellipse;aspect=fixed;strokeWidth=2;whiteSpace=wrap;" vertex="1" parent="10">
          <mxGeometry x="212" y="46" width="73" height="73" as="geometry" />
        </mxCell>
        <mxCell id="12" value="Australia" style="rounded=1;arcSize=40;strokeWidth=2" vertex="1" parent="10">
          <mxGeometry x="43" y="193" width="94" height="49" as="geometry" />
        </mxCell>
        <mxCell id="13" value="New Zealand" style="rounded=1;arcSize=40;strokeWidth=2" vertex="1" parent="10">
          <mxGeometry x="187" y="193" width="122" height="49" as="geometry" />
        </mxCell>
        <mxCell id="14" value="Pacific Islands" style="rounded=1;arcSize=40;strokeWidth=2" vertex="1" parent="10">
          <mxGeometry x="359" y="193" width="130" height="49" as="geometry" />
        </mxCell>
        <mxCell id="15" value="" style="curved=1;startArrow=none;endArrow=block;exitX=0;exitY=0.72;entryX=0.5;entryY=0;" edge="1" parent="10" source="11" target="12">
          <mxGeometry relative="1" as="geometry">
            <Array as="points">
              <mxPoint x="90" y="156" />
            </Array>
          </mxGeometry>
        </mxCell>
        <mxCell id="16" value="" style="curved=1;startArrow=none;endArrow=block;exitX=0.5;exitY=0.99;entryX=0.5;entryY=0;" edge="1" parent="10" source="11" target="13">
          <mxGeometry relative="1" as="geometry">
            <Array as="points" />
          </mxGeometry>
        </mxCell>
        <mxCell id="17" value="" style="curved=1;startArrow=none;endArrow=block;exitX=0.99;exitY=0.7;entryX=0.5;entryY=0;" edge="1" parent="10" source="11" target="14">
          <mxGeometry relative="1" as="geometry">
            <Array as="points">
              <mxPoint x="425" y="156" />
            </Array>
          </mxGeometry>
        </mxCell>
        <mxCell id="18" value="NorthAmerica" style="whiteSpace=wrap;strokeWidth=2;verticalAlign=top;" vertex="1" parent="1">
          <mxGeometry x="62" y="695" width="459" height="316" as="geometry" />
        </mxCell>
        <mxCell id="19" value="North America" style="ellipse;aspect=fixed;strokeWidth=2;whiteSpace=wrap;" vertex="1" parent="18">
          <mxGeometry x="202" y="46" width="118" height="118" as="geometry" />
        </mxCell>
        <mxCell id="20" value="United States" style="rounded=1;arcSize=40;strokeWidth=2" vertex="1" parent="18">
          <mxGeometry x="43" y="238" width="126" height="49" as="geometry" />
        </mxCell>
        <mxCell id="21" value="Canada" style="rounded=1;arcSize=40;strokeWidth=2" vertex="1" parent="18">
          <mxGeometry x="219" y="238" width="82" height="49" as="geometry" />
        </mxCell>
        <mxCell id="22" value="Mexico" style="rounded=1;arcSize=40;strokeWidth=2" vertex="1" parent="18">
          <mxGeometry x="352" y="238" width="80" height="49" as="geometry" />
        </mxCell>
        <mxCell id="23" value="" style="curved=1;startArrow=none;endArrow=block;exitX=0;exitY=0.8;entryX=0.5;entryY=0;" edge="1" parent="18" source="19" target="20">
          <mxGeometry relative="1" as="geometry">
            <Array as="points">
              <mxPoint x="106" y="201" />
            </Array>
          </mxGeometry>
        </mxCell>
        <mxCell id="24" value="" style="curved=1;startArrow=none;endArrow=block;exitX=0.5;exitY=0.99;entryX=0.51;entryY=0;" edge="1" parent="18" source="19" target="21">
          <mxGeometry relative="1" as="geometry">
            <Array as="points" />
          </mxGeometry>
        </mxCell>
        <mxCell id="25" value="" style="curved=1;startArrow=none;endArrow=block;exitX=1;exitY=0.86;entryX=0.5;entryY=0;" edge="1" parent="18" source="19" target="22">
          <mxGeometry relative="1" as="geometry">
            <Array as="points">
              <mxPoint x="392" y="201" />
            </Array>
          </mxGeometry>
        </mxCell>
        <mxCell id="26" value="Europe" style="whiteSpace=wrap;strokeWidth=2;" vertex="1" parent="1">
          <mxGeometry x="8" y="1046" width="760" height="141" as="geometry" />
        </mxCell>
        <mxCell id="27" value="Asia" style="whiteSpace=wrap;strokeWidth=2;" vertex="1" parent="1">
          <mxGeometry x="8" y="1207" width="760" height="217" as="geometry" />
        </mxCell>
        <mxCell id="28" value="Africa" style="whiteSpace=wrap;strokeWidth=2;" vertex="1" parent="1">
          <mxGeometry x="8" y="1444" width="760" height="414" as="geometry" />
        </mxCell>
        <mxCell id="29" value="Africa" style="ellipse;aspect=fixed;strokeWidth=2;whiteSpace=wrap;" vertex="1" parent="1">
          <mxGeometry x="262" y="1623" width="58" height="58" as="geometry" />
        </mxCell>
        <mxCell id="30" value="North Africa" style="rounded=1;arcSize=40;strokeWidth=2" vertex="1" parent="1">
          <mxGeometry x="613" y="1775" width="117" height="49" as="geometry" />
        </mxCell>
        <mxCell id="31" value="West Africa" style="rounded=1;arcSize=40;strokeWidth=2" vertex="1" parent="1">
          <mxGeometry x="616" y="1677" width="111" height="49" as="geometry" />
        </mxCell>
        <mxCell id="32" value="East Asia" style="rounded=1;arcSize=40;strokeWidth=2" vertex="1" parent="1">
          <mxGeometry x="625" y="1578" width="93" height="49" as="geometry" />
        </mxCell>
        <mxCell id="33" value="South Asia" style="rounded=1;arcSize=40;strokeWidth=2" vertex="1" parent="1">
          <mxGeometry x="620" y="1479" width="103" height="49" as="geometry" />
        </mxCell>
        <mxCell id="34" value="Asia" style="ellipse;aspect=fixed;strokeWidth=2;whiteSpace=wrap;" vertex="1" parent="1">
          <mxGeometry x="269" y="1332" width="45" height="45" as="geometry" />
        </mxCell>
        <mxCell id="35" value="Southeast Asia" style="rounded=1;arcSize=40;strokeWidth=2" vertex="1" parent="1">
          <mxGeometry x="605" y="1341" width="133" height="49" as="geometry" />
        </mxCell>
        <mxCell id="36" value="Western Europe" style="rounded=1;arcSize=40;strokeWidth=2" vertex="1" parent="1">
          <mxGeometry x="600" y="1242" width="144" height="49" as="geometry" />
        </mxCell>
        <mxCell id="37" value="Europe" style="ellipse;aspect=fixed;strokeWidth=2;whiteSpace=wrap;" vertex="1" parent="1">
          <mxGeometry x="259" y="1087" width="65" height="65" as="geometry" />
        </mxCell>
        <mxCell id="38" value="Eastern Europe" style="rounded=1;arcSize=40;strokeWidth=2" vertex="1" parent="1">
          <mxGeometry x="602" y="1086" width="138" height="49" as="geometry" />
        </mxCell>
        <mxCell id="39" value="" style="curved=1;startArrow=none;endArrow=block;exitX=1.01;exitY=0.75;entryX=0;entryY=0.5;" edge="1" parent="1" source="29" target="30">
          <mxGeometry relative="1" as="geometry">
            <Array as="points">
              <mxPoint x="575" y="1799" />
            </Array>
          </mxGeometry>
        </mxCell>
        <mxCell id="40" value="" style="curved=1;startArrow=none;endArrow=block;exitX=1.01;exitY=0.58;entryX=0;entryY=0.49;" edge="1" parent="1" source="29" target="31">
          <mxGeometry relative="1" as="geometry">
            <Array as="points">
              <mxPoint x="575" y="1701" />
            </Array>
          </mxGeometry>
        </mxCell>
        <mxCell id="41" value="" style="curved=1;startArrow=none;endArrow=block;exitX=1.01;exitY=0.41;entryX=0;entryY=0.5;" edge="1" parent="1" source="29" target="32">
          <mxGeometry relative="1" as="geometry">
            <Array as="points">
              <mxPoint x="575" y="1602" />
            </Array>
          </mxGeometry>
        </mxCell>
        <mxCell id="42" value="" style="curved=1;startArrow=none;endArrow=block;exitX=1.01;exitY=0.23;entryX=0;entryY=0.5;" edge="1" parent="1" source="29" target="33">
          <mxGeometry relative="1" as="geometry">
            <Array as="points">
              <mxPoint x="575" y="1504" />
            </Array>
          </mxGeometry>
        </mxCell>
        <mxCell id="43" value="" style="curved=1;startArrow=none;endArrow=block;exitX=0.99;exitY=0.56;entryX=0.38;entryY=0;" edge="1" parent="1" source="34" target="32">
          <mxGeometry relative="1" as="geometry">
            <Array as="points">
              <mxPoint x="575" y="1395" />
            </Array>
          </mxGeometry>
        </mxCell>
        <mxCell id="44" value="" style="curved=1;startArrow=none;endArrow=block;exitX=0.99;exitY=0.5;entryX=0;entryY=0.49;" edge="1" parent="1" source="34" target="35">
          <mxGeometry relative="1" as="geometry">
            <Array as="points">
              <mxPoint x="575" y="1365" />
            </Array>
          </mxGeometry>
        </mxCell>
        <mxCell id="45" value="" style="curved=1;startArrow=none;endArrow=block;exitX=0.99;exitY=0.42;entryX=0.38;entryY=0.01;" edge="1" parent="1" source="34" target="33">
          <mxGeometry relative="1" as="geometry">
            <Array as="points">
              <mxPoint x="575" y="1316" />
            </Array>
          </mxGeometry>
        </mxCell>
        <mxCell id="46" value="" style="curved=1;startArrow=none;endArrow=block;exitX=0.99;exitY=0.33;entryX=0;entryY=0.5;" edge="1" parent="1" source="34" target="36">
          <mxGeometry relative="1" as="geometry">
            <Array as="points">
              <mxPoint x="575" y="1267" />
            </Array>
          </mxGeometry>
        </mxCell>
        <mxCell id="47" value="" style="curved=1;startArrow=none;endArrow=block;exitX=1;exitY=0.55;entryX=0.36;entryY=0.01;" edge="1" parent="1" source="37" target="36">
          <mxGeometry relative="1" as="geometry">
            <Array as="points">
              <mxPoint x="575" y="1144" />
            </Array>
          </mxGeometry>
        </mxCell>
        <mxCell id="48" value="" style="curved=1;startArrow=none;endArrow=block;exitX=1;exitY=0.49;entryX=0;entryY=0.49;" edge="1" parent="1" source="37" target="38">
          <mxGeometry relative="1" as="geometry">
            <Array as="points">
              <mxPoint x="575" y="1110" />
            </Array>
          </mxGeometry>
        </mxCell>
      </root>
    </mxGraphModel>
  </diagram>
</mxfile>
